<?xml version="1.0" encoding="UTF-8" standalone="no"?>
<!-- Created with Inkscape (http://www.inkscape.org/) -->
<svg id="svg5082" xmlns:rdf="http://www.w3.org/1999/02/22-rdf-syntax-ns#" xmlns="http://www.w3.org/2000/svg" height="8.5231mm" width="8.5231mm" version="1.1" xmlns:cc="http://creativecommons.org/ns#" xmlns:dc="http://purl.org/dc/elements/1.1/" viewBox="0 0 30.200001 30.200001">
 <metadata id="metadata5087">
  <rdf:RDF>
   <cc:Work rdf:about="">
    <dc:format>image/svg+xml</dc:format>
    <dc:type rdf:resource="http://purl.org/dc/dcmitype/StillImage"/>
    <dc:title/>
   </cc:Work>
  </rdf:RDF>
 </metadata>
 <g id="layer1" transform="translate(-262.04 -497.26)">
  <path id="path235" fill="#fff" class="st13" d="m277.14 502.36c-5.6 0-10.1 4.5-10.1 10.1s4.5 10.1 10.1 10.1 10.1-4.5 10.1-10.1-4.5-10.1-10.1-10.1m0 1.7c4.6 0 8.4 3.8 8.4 8.4s-3.8 8.4-8.4 8.4-8.4-3.8-8.4-8.4c0-4.7 3.8-8.4 8.4-8.4m1.7 3.3c0-0.9-0.8-1.7-1.7-1.7s-1.7 0.8-1.7 1.7v5c0 0.9 0.8 1.7 1.7 1.7s1.7-0.8 1.7-1.7v-5zm-1.7-10.1c-8.4 0-15.1 6.8-15.1 15.1 0 8.4 6.8 15.1 15.1 15.1 8.4 0 15.1-6.8 15.1-15.1s-6.7-15.1-15.1-15.1m0 3.4c6.5 0 11.8 5.3 11.8 11.8s-5.3 11.8-11.8 11.8-11.8-5.3-11.8-11.8 5.3-11.8 11.8-11.8m6.7 11.8c0-0.9-0.8-1.7-1.7-1.7h-5c-0.9 0-1.7 0.8-1.7 1.7s0.8 1.7 1.7 1.7h5c1-0.1 1.7-0.8 1.7-1.7"/>
 </g>
</svg>
