<?xml version="1.0" encoding="UTF-8" standalone="no"?>
<!-- Created with Inkscape (http://www.inkscape.org/) -->
<svg id="svg6463" xmlns:rdf="http://www.w3.org/1999/02/22-rdf-syntax-ns#" xmlns="http://www.w3.org/2000/svg" height="8.2691mm" width="7.4224mm" version="1.1" xmlns:cc="http://creativecommons.org/ns#" xmlns:dc="http://purl.org/dc/elements/1.1/" viewBox="0 0 26.3 29.299998">
 <metadata id="metadata6468">
  <rdf:RDF>
   <cc:Work rdf:about="">
    <dc:format>image/svg+xml</dc:format>
    <dc:type rdf:resource="http://purl.org/dc/dcmitype/StillImage"/>
    <dc:title/>
   </cc:Work>
  </rdf:RDF>
 </metadata>
 <g id="layer1" transform="translate(-343.99 -692)">
  <path id="path135" d="m370.29 712.5c0-0.2 0-0.3-0.1-0.5l-2.9-8.7c-0.2-0.6-0.8-1-1.4-1h-0.3c-0.1 0.3-0.3 0.5-0.5 0.8l-2.2 2.1h2l2.4 7.3h-20.3l2.4-7.3h2l-2.2-2.1c-0.2-0.2-0.4-0.5-0.5-0.8h-0.3c-0.6 0-1.2 0.4-1.4 1l-2.9 8.7c-0.1 0.2-0.1 0.3-0.1 0.5v7.3c0 0.8 0.7 1.5 1.5 1.5h23.3c0.8 0 1.5-0.7 1.5-1.5v-7.3m-6.3-12.5c-0.3-0.3-0.7-0.4-1-0.4-0.4 0-0.8 0.1-1 0.4l-3.3 3.3v-9.8c0-0.8-0.7-1.5-1.5-1.5s-1.5 0.7-1.5 1.5v9.8l-3.3-3.3c-0.3-0.3-0.6-0.4-1-0.4s-0.8 0.2-1 0.4c-0.6 0.6-0.6 1.5 0 2.1l6.9 6.8 6.9-6.8c0.4-0.7 0.4-1.6-0.2-2.1" class="st1" fill="#4386e2"/>
 </g>
</svg>
