<?xml version="1.0" encoding="UTF-8" standalone="no"?>
<!-- Created with Inkscape (http://www.inkscape.org/) -->
<svg id="svg5040" xmlns:rdf="http://www.w3.org/1999/02/22-rdf-syntax-ns#" xmlns="http://www.w3.org/2000/svg" height="8.6219mm" width="6.7874mm" version="1.1" xmlns:cc="http://creativecommons.org/ns#" xmlns:dc="http://purl.org/dc/elements/1.1/" viewBox="0 0 24.050001 30.550001">
 <metadata id="metadata5045">
  <rdf:RDF>
   <cc:Work rdf:about="">
    <dc:format>image/svg+xml</dc:format>
    <dc:type rdf:resource="http://purl.org/dc/dcmitype/StillImage"/>
    <dc:title/>
   </cc:Work>
  </rdf:RDF>
 </metadata>
 <g id="layer1" transform="translate(937.74 257.2)">
  <path id="path233" fill="#fff" class="st13" d="m-927.49-254.05c2.5 0 4.8 1 6.5 2.7s2.7 4 2.7 6.5-1 4.8-2.7 6.5-4 2.7-6.5 2.7-4.8-1-6.5-2.7-2.7-4-2.7-6.5 1-4.8 2.7-6.5 4-2.7 6.5-2.7m0 24.4h-6.1c-0.8 0-1.5 0.7-1.5 1.5s0.7 1.5 1.5 1.5h15.3c0.8 0 1.5-0.7 1.5-1.5s-0.7-1.5-1.5-1.5h-6.1v-1.9c2.5-0.6 4.8-1.8 6.7-3.7 2.6-2.6 4-6.1 4-9.7 0-3.2-1.1-6.2-3-8.6l1-1c0.6-0.6 0.6-1.6 0-2.2s-1.6-0.6-2.2 0l-3.1 3.1 1.1 1.1c2 2 3.1 4.7 3.1 7.6s-1.1 5.5-3.1 7.6c-2 2-4.7 3.1-7.6 3.1s-5.5-1.1-7.6-3.1c-0.6-0.6-1.6-0.6-2.2 0s-0.6 1.6 0 2.2c2.6 2.6 6.1 4 9.7 4v1.5z"/>
 </g>
</svg>
