<?xml version="1.0" encoding="UTF-8" standalone="no"?>
<!-- Created with Inkscape (http://www.inkscape.org/) -->

<svg
   xmlns:dc="http://purl.org/dc/elements/1.1/"
   xmlns:cc="http://creativecommons.org/ns#"
   xmlns:rdf="http://www.w3.org/1999/02/22-rdf-syntax-ns#"
   xmlns:svg="http://www.w3.org/2000/svg"
   xmlns="http://www.w3.org/2000/svg"
   xmlns:sodipodi="http://sodipodi.sourceforge.net/DTD/sodipodi-0.dtd"
   xmlns:inkscape="http://www.inkscape.org/namespaces/inkscape"
   id="svg4741"
   height="19.191mm"
   width="19.191mm"
   version="1.1"
   viewBox="0 0 67.999998 67.999998"
   inkscape:version="0.48.5 r10040"
   sodipodi:docname="list.svg">
  <defs
     id="defs3977" />
  <sodipodi:namedview
     pagecolor="#ffffff"
     bordercolor="#666666"
     borderopacity="1"
     objecttolerance="10"
     gridtolerance="10"
     guidetolerance="10"
     inkscape:pageopacity="0"
     inkscape:pageshadow="2"
     inkscape:window-width="956"
     inkscape:window-height="1041"
     id="namedview3975"
     showgrid="false"
     inkscape:zoom="3.4706085"
     inkscape:cx="-20.457508"
     inkscape:cy="33.999802"
     inkscape:window-x="960"
     inkscape:window-y="37"
     inkscape:window-maximized="0"
     inkscape:current-layer="svg4741" />
  <metadata
     id="metadata4746">
    <rdf:RDF>
      <cc:Work
         rdf:about="">
        <dc:format>image/svg+xml</dc:format>
        <dc:type
           rdf:resource="http://purl.org/dc/dcmitype/StillImage" />
        <dc:title />
      </cc:Work>
    </rdf:RDF>
  </metadata>
  <rect
     id="rect175"
     class="st10"
     height="68"
     width="68"
     y="-1.2207031e-05"
     x="-2.4414063e-05"
     style="fill:none" />
  <path
     style="fill:#ffffff"
     inkscape:connector-curvature="0"
     d="M 45.7,19.5 H 34.5 c -1.8,0 -3.2,1.4 -3.2,3.2 0,1.8 1.4,3.2 3.2,3.2 h 11.2 c 1.8,0 3.2,-1.4 3.2,-3.2 0,-1.7 -1.5,-3.2 -3.2,-3.2 m 0,11.3 H 34.5 c -1.8,0 -3.2,1.4 -3.2,3.2 0,1.8 1.4,3.2 3.2,3.2 h 11.2 c 1.8,0 3.2,-1.4 3.2,-3.2 0,-1.8 -1.5,-3.2 -3.2,-3.2 m 0,11.2 H 34.5 c -1.8,0 -3.2,1.4 -3.2,3.2 0,1.8 1.4,3.2 3.2,3.2 h 11.2 c 1.8,0 3.2,-1.4 3.2,-3.2 0,-1.8 -1.5,-3.2 -3.2,-3.2"
     class="st2"
     id="path197" />
  <path
     style="fill:#ffffff"
     inkscape:connector-curvature="0"
     d="m 23.2,41.2 c 2.2,0 4,1.8 4,4 0,2.2 -1.8,4 -4,4 -2.2,0 -4,-1.8 -4,-4 0,-2.2 1.8,-4 4,-4"
     class="st2"
     id="path199" />
  <path
     style="fill:#ffffff"
     inkscape:connector-curvature="0"
     d="m 23.2,30 c 2.2,0 4,1.8 4,4 0,2.2 -1.8,4 -4,4 -2.2,0 -4,-1.8 -4,-4 0,-2.2 1.8,-4 4,-4"
     class="st2"
     id="path201" />
  <path
     style="fill:#ffffff"
     inkscape:connector-curvature="0"
     d="m 23.2,18.7 c 2.2,0 4,1.8 4,4 0,2.2 -1.8,4 -4,4 -2.2,0 -4,-1.8 -4,-4 0,-2.2 1.8,-4 4,-4"
     class="st2"
     id="path203" />
</svg>
