<?xml version="1.0" encoding="UTF-8" standalone="no"?>
<!-- Created with Inkscape (http://www.inkscape.org/) -->
<svg id="svg4576" xmlns:rdf="http://www.w3.org/1999/02/22-rdf-syntax-ns#" xmlns="http://www.w3.org/2000/svg" height="5.1647mm" width="5.1364mm" version="1.1" xmlns:cc="http://creativecommons.org/ns#" xmlns:dc="http://purl.org/dc/elements/1.1/" viewBox="0 0 18.2 18.3">
 <metadata id="metadata4581">
  <rdf:RDF>
   <cc:Work rdf:about="">
    <dc:format>image/svg+xml</dc:format>
    <dc:type rdf:resource="http://purl.org/dc/dcmitype/StillImage"/>
    <dc:title/>
   </cc:Work>
  </rdf:RDF>
 </metadata>
 <g id="layer1" transform="translate(-348.04 -643.21)">
  <path id="path319" fill="#6c861e" class="st33" d="m361.44 643.51c-0.4-0.4-1.2-0.4-1.6 0-0.1 0.1-0.2 0.3-0.3 0.4-1 2-2 3.1-3.3 3.8-1.5 0.7-3.2 1.2-5.9 1.2-0.1 0-0.3 0-0.4 0.1-0.3 0.1-0.5 0.3-0.6 0.6s-0.1 0.6 0 0.9c0.1 0.1 0.1 0.3 0.2 0.4l3.7 3.7-5.2 6.9 6.9-5.2 3.7 3.7c0.1 0.1 0.2 0.2 0.4 0.2 0.1 0.1 0.3 0.1 0.4 0.1s0.3 0 0.4-0.1c0.3-0.1 0.5-0.3 0.6-0.6 0.1-0.1 0.1-0.3 0.1-0.4 0-2.7 0.5-4.5 1.2-5.9 0.7-1.3 1.8-2.4 3.8-3.3 0.1-0.1 0.3-0.1 0.4-0.3 0.4-0.5 0.4-1.2 0-1.6l-4.5-4.6z"/>
 </g>
</svg>
