<?xml version="1.0" encoding="UTF-8" standalone="no"?>
<!-- Created with Inkscape (http://www.inkscape.org/) -->
<svg id="svg5698" xmlns:rdf="http://www.w3.org/1999/02/22-rdf-syntax-ns#" xmlns="http://www.w3.org/2000/svg" height="7.6271mm" width="7.6271mm" version="1.1" xmlns:cc="http://creativecommons.org/ns#" xmlns:dc="http://purl.org/dc/elements/1.1/" viewBox="0 0 27.025 27.025">
 <metadata id="metadata5703">
  <rdf:RDF>
   <cc:Work rdf:about="">
    <dc:format>image/svg+xml</dc:format>
    <dc:type rdf:resource="http://purl.org/dc/dcmitype/StillImage"/>
    <dc:title/>
   </cc:Work>
  </rdf:RDF>
 </metadata>
 <g id="layer1" transform="translate(-66.488 -607.42)">
  <path id="path114" d="m86.188 607.95c-0.7-0.7-1.7-0.7-2.4 0-0.2 0.2-0.3 0.4-0.4 0.6-1.4 2.9-2.9 4.6-4.9 5.6-2.2 1.1-4.7 1.8-8.7 1.8-0.2 0-0.4 0-0.6 0.1-0.4 0.2-0.7 0.5-0.9 0.9s-0.2 0.9 0 1.3c0.1 0.2 0.2 0.4 0.4 0.5l5.5 5.5-7.7 10.2 10.2-7.7 5.5 5.5c0.2 0.2 0.3 0.3 0.6 0.4 0.2 0.1 0.4 0.1 0.6 0.1s0.4 0 0.6-0.1c0.4-0.2 0.7-0.5 0.9-0.9 0.1-0.2 0.1-0.4 0.1-0.6 0-4 0.7-6.6 1.8-8.7 1-1.9 2.6-3.5 5.6-4.9 0.2-0.1 0.4-0.2 0.6-0.4 0.7-0.7 0.7-1.7 0-2.4l-6.8-6.8z" class="st1" fill="#fff"/>
 </g>
</svg>
