<?xml version="1.0" encoding="UTF-8" standalone="no"?>
<!-- Created with Inkscape (http://www.inkscape.org/) -->
<svg id="svg4081" xmlns:rdf="http://www.w3.org/1999/02/22-rdf-syntax-ns#" xmlns="http://www.w3.org/2000/svg" height="5.5527mm" viewBox="0 0 19.675001 19.675001" width="5.5527mm" version="1.1" xmlns:cc="http://creativecommons.org/ns#" xmlns:dc="http://purl.org/dc/elements/1.1/">
 <metadata id="metadata4086">
  <rdf:RDF>
   <cc:Work rdf:about="">
    <dc:format>image/svg+xml</dc:format>
    <dc:type rdf:resource="http://purl.org/dc/dcmitype/StillImage"/>
    <dc:title/>
   </cc:Work>
  </rdf:RDF>
 </metadata>
 <path id="path243" d="m12.9 10.78c-0.9 1.9-1.4 3.9-1.4 6.5l-9.2-9.2c2.5 0 4.4-0.4 6.2-1.3l0.3-0.1c1.6-0.8 2.9-2.2 3.9-4.4l4.5 4.7c-2.1 1-3.5 2.2-4.3 3.8m6.1-5.5-4.6-4.6c-0.9-0.9-2.4-0.9-3.3 0-0.2 0.2-0.4 0.5-0.5 0.7-0.8 1.6-1.6 2.6-2.6 3.1l-0.2 0.1c-1.1 0.6-2.6 1.1-5.5 1.1-0.3 0-0.6 0.1-0.9 0.2-0.6 0.2-1 0.7-1.2 1.3s-0.2 1.2 0 1.8c0.1 0.3 0.3 0.5 0.5 0.8l3.7 3.7-4.4 6.2 6.2-4.4 3.7 3.7c0.2 0.2 0.5 0.4 0.8 0.5s0.6 0.2 0.9 0.2 0.6-0.1 0.9-0.2c0.6-0.2 1-0.7 1.2-1.2 0.1-0.3 0.2-0.6 0.2-0.9 0-2.8 0.6-4.3 1.1-5.5 0.6-1.1 1.6-2 3.2-2.8 0.3-0.1 0.6-0.3 0.8-0.5 0.9-1 0.9-2.4 0-3.3" class="st20" fill="#fff"/>
</svg>
