<?xml version="1.0" encoding="UTF-8" standalone="no"?>
<!-- Generator: Adobe Illustrator 15.0.2, SVG Export Plug-In . SVG Version: 6.00 Build 0)  -->
<svg id="Layer_1" xmlns:rdf="http://www.w3.org/1999/02/22-rdf-syntax-ns#" xmlns="http://www.w3.org/2000/svg" enable-background="new 0 0 512 566.611" xml:space="preserve" height="64.825" viewBox="0 0 58.576938 64.825117" width="58.577" version="1.1" y="0px" x="0px" xmlns:cc="http://creativecommons.org/ns#" xmlns:dc="http://purl.org/dc/elements/1.1/"><metadata id="metadata5891"><rdf:RDF><cc:Work rdf:about=""><dc:format>image/svg+xml</dc:format><dc:type rdf:resource="http://purl.org/dc/dcmitype/StillImage"/><dc:title/></cc:Work></rdf:RDF></metadata><path id="path5885" fill="#4386e2" d="m48.814 45.852c-2.4725 0-4.7034 0.95989-6.3943 2.5059l-23.188-13.521c0.17951-0.73244 0.29311-1.4976 0.29311-2.2787 0-0.78095-0.11361-1.5461-0.29311-2.2778l22.943-13.39c1.7416 1.6272 4.0679 2.6362 6.6389 2.6362 5.3867 0 9.7628-4.3778 9.7628-9.7629 0-5.3864-4.376-9.7633-9.763-9.7633s-9.763 4.3769-9.763 9.7628c0 0.78015 0.11441 1.5453 0.29243 2.2779l-22.941 13.391c-1.742-1.627-4.068-2.636-6.6392-2.636-5.3859 0-9.7628 4.377-9.7628 9.763 0 5.3868 4.3769 9.7629 9.7628 9.7629 2.5711 0 4.8974-1.009 6.6389-2.6362l23.186 13.52c-0.162 0.68325-0.26051 1.3999-0.26051 2.1325 0 5.239 4.2458 9.4864 9.4864 9.4864s9.4863-4.2474 9.4863-9.4864-4.2457-9.4865-9.4863-9.4865z"/></svg>
