<?xml version="1.0" encoding="UTF-8" standalone="no"?>
<!-- Created with Inkscape (http://www.inkscape.org/) -->
<svg id="svg5128" xmlns:rdf="http://www.w3.org/1999/02/22-rdf-syntax-ns#" xmlns="http://www.w3.org/2000/svg" height="8.4949mm" width="8.9464mm" version="1.1" xmlns:cc="http://creativecommons.org/ns#" xmlns:dc="http://purl.org/dc/elements/1.1/" viewBox="0 0 31.7 30.100001">
 <metadata id="metadata5133">
  <rdf:RDF>
   <cc:Work rdf:about="">
    <dc:format>image/svg+xml</dc:format>
    <dc:type rdf:resource="http://purl.org/dc/dcmitype/StillImage"/>
    <dc:title/>
   </cc:Work>
  </rdf:RDF>
 </metadata>
 <g id="layer1" transform="translate(-355.58 -403.03)">
  <g id="g5025" fill="#fff" transform="translate(150.48 172.63)">
   <path id="path197" d="m221.9 235.1h-4.1c-0.3 0-0.6-0.3-0.6-0.6s0.3-0.6 0.6-0.6h4.1c0.3 0 0.6 0.3 0.6 0.6s-0.3 0.6-0.6 0.6m0 2.2h-4.1c-0.3 0-0.6-0.3-0.6-0.6s0.3-0.6 0.6-0.6h4.1c0.3 0 0.6 0.3 0.6 0.6s-0.3 0.6-0.6 0.6m0 2.5h-4.1c-0.3 0-0.6-0.3-0.6-0.6s0.3-0.6 0.6-0.6h4.1c0.3 0 0.6 0.3 0.6 0.6s-0.3 0.6-0.6 0.6m0.5-9.3h-5.2c-0.5 0-0.9 0.4-0.9 0.9v23.3c0 0.5 0.4 0.9 0.9 0.9h5.2c0.5 0 0.9-0.4 0.9-0.9v-23.3c0-0.5-0.4-0.9-0.9-0.9" class="st13"/>
   <path id="path199" d="m213.8 235h-4.1c-0.3 0-0.6-0.3-0.6-0.6s0.3-0.6 0.6-0.6h4.1c0.3 0 0.6 0.3 0.6 0.6s-0.3 0.6-0.6 0.6m0 2.1h-4.1c-0.3 0-0.6-0.3-0.6-0.6s0.3-0.6 0.6-0.6h4.1c0.3 0 0.6 0.3 0.6 0.6 0 0.4-0.3 0.6-0.6 0.6m0 2.5h-4.1c-0.3 0-0.6-0.3-0.6-0.6s0.3-0.6 0.6-0.6h4.1c0.3 0 0.6 0.3 0.6 0.6 0 0.4-0.3 0.6-0.6 0.6m0.6-9.2h-5.2c-0.5 0-0.9 0.4-0.9 0.9v23.3c0 0.5 0.4 0.9 0.9 0.9h5.2c0.5 0 0.9-0.4 0.9-0.9v-23.3c-0.1-0.5-0.5-0.9-0.9-0.9" class="st13"/>
   <path id="path201" d="m230.3 241-3.6 0.8h-0.1c-0.2 0-0.4-0.2-0.5-0.4-0.1-0.3 0.1-0.5 0.4-0.6l3.6-0.8c0.3-0.1 0.5 0.1 0.6 0.4 0.1 0.2-0.1 0.5-0.4 0.6m-4.7-1.8c-0.1-0.3 0.1-0.5 0.4-0.6l3.6-0.8c0.3-0.1 0.5 0.1 0.6 0.4s-0.1 0.5-0.4 0.6l-3.6 0.8h-0.1c-0.2 0-0.4-0.2-0.5-0.4m-0.4-1.9c-0.1-0.3 0.1-0.5 0.4-0.6l3.6-0.8c0.3-0.1 0.5 0.1 0.6 0.4s-0.1 0.5-0.4 0.6l-3.6 0.8h-0.1c-0.2 0-0.4-0.2-0.5-0.4m9.1 16.5-4.3-20.4c-0.1-0.4-0.5-0.7-0.9-0.6l-4.5 0.9c-0.4 0.1-0.7 0.5-0.6 0.9l4.3 20.4c0.1 0.4 0.5 0.7 0.9 0.6l4.5-0.9c0.4-0.1 0.7-0.5 0.6-0.9" class="st13"/>
   <path id="path203" d="m236 260.5h-30.1c-0.4 0-0.8-0.4-0.8-0.8v-1.9c0-0.4 0.4-0.8 0.8-0.8h30.1c0.4 0 0.8 0.4 0.8 0.8v1.9c0 0.4-0.4 0.8-0.8 0.8" class="st13"/>
  </g>
 </g>
</svg>
